<svg width="64" height="64" viewBox="0 0 64 64" fill="none" xmlns="http://www.w3.org/2000/svg">
<path d="M54.6668 6.66663H9.3335L13.3335 52L32.0002 57.3333L50.6668 52L54.6668 6.66663Z" fill="#0277BD"/>
<path d="M32 10.6666V53.2L46.9333 48.9333L50.2667 10.6666H32Z" fill="#039BE5"/>
<path d="M44.1333 17.3334H32V22.6667H38.5333L38.1333 28H32V33.3334H37.8667L37.4667 39.3334L32 41.2V46.8L42.5333 43.3334L43.4667 28L44.1333 17.3334Z" fill="white"/>
<path d="M32.0001 17.3334V22.6667H20.1334L19.7334 17.3334H32.0001ZM25.8667 28L26.1334 33.3334H32.0001V28H25.8667ZM26.4001 36H21.0667L21.4667 43.3334L32.0001 46.8V41.2L26.5334 39.3334L26.4001 36Z" fill="#EEEEEE"/>
</svg>
