<svg width="54" height="54" viewBox="0 0 54 54" fill="none" xmlns="http://www.w3.org/2000/svg">
<rect width="54" height="54" fill="#1E1E1E"/>
<g clip-path="url(#clip0_146_13)">
<path d="M26.5 27.5C26.5 25.6876 27.2112 23.9496 28.477 22.6681C29.7429 21.3866 31.4598 20.6666 33.25 20.6666C35.0402 20.6666 36.7571 21.3866 38.023 22.6681C39.2888 23.9496 40 25.6876 40 27.5C40 29.3123 39.2888 31.0504 38.023 32.3319C36.7571 33.6134 35.0402 34.3333 33.25 34.3333C31.4598 34.3333 29.7429 33.6134 28.477 32.3319C27.2112 31.0504 26.5 29.3123 26.5 27.5Z" fill="#1ABCFE"/>
<path d="M13 41.1667C13 39.3544 13.7112 37.6163 14.977 36.3348C16.2429 35.0533 17.9598 34.3334 19.75 34.3334H26.5V41.1667C26.5 42.979 25.7888 44.7171 24.523 45.9986C23.2571 47.2801 21.5402 48 19.75 48C17.9598 48 16.2429 47.2801 14.977 45.9986C13.7112 44.7171 13 42.979 13 41.1667V41.1667Z" fill="#0ACF83"/>
<path d="M26.5 7V20.6667H33.25C35.0402 20.6667 36.7571 19.9467 38.023 18.6652C39.2888 17.3837 40 15.6456 40 13.8333C40 12.021 39.2888 10.2829 38.023 9.00144C36.7571 7.71994 35.0402 7 33.25 7L26.5 7Z" fill="#FF7262"/>
<path d="M13 13.8333C13 15.6456 13.7112 17.3837 14.977 18.6652C16.2429 19.9467 17.9598 20.6667 19.75 20.6667H26.5V7H19.75C17.9598 7 16.2429 7.71994 14.977 9.00144C13.7112 10.2829 13 12.021 13 13.8333V13.8333Z" fill="#F24E1E"/>
<path d="M13 27.5C13 29.3123 13.7112 31.0504 14.977 32.3319C16.2429 33.6134 17.9598 34.3333 19.75 34.3333H26.5V20.6666H19.75C17.9598 20.6666 16.2429 21.3866 14.977 22.6681C13.7112 23.9496 13 25.6876 13 27.5V27.5Z" fill="#A259FF"/>
</g>
<defs>
<clipPath id="clip0_146_13">
<rect width="27" height="41" fill="white" transform="translate(13 7)"/>
</clipPath>
</defs>
</svg>
