<svg width="64" height="64" viewBox="0 0 64 64" fill="none" xmlns="http://www.w3.org/2000/svg">
<path d="M54.6668 6.66663H9.3335L13.3335 52L32.0002 57.3333L50.6668 52L54.6668 6.66663Z" fill="#E65100"/>
<path d="M32 10.6666V53.2L46.9333 48.9333L50.2667 10.6666H32Z" fill="#FF6D00"/>
<path d="M32 33.3334V28H43.4667L42.5333 43.3334L32 46.8V41.2L37.4667 39.3334L37.8667 33.3334H32ZM43.8667 22.6667L44.2667 17.3334H32V22.6667H43.8667Z" fill="white"/>
<path d="M32 41.2V46.8L21.4667 43.3334L20.9334 36H26.2667L26.5334 39.3334L32 41.2ZM25.4667 22.6667H32V17.3334H19.8667L20.8 33.3334H32V28H25.8667L25.4667 22.6667Z" fill="#EEEEEE"/>
</svg>
