<svg width="64" height="64" viewBox="0 0 64 64" fill="none" xmlns="http://www.w3.org/2000/svg">
<path d="M8 56V8H56V56H8Z" fill="#FFD600"/>
<path d="M39.3838 43.9294C40.3065 45.428 41.3092 46.864 43.4332 46.864C45.2172 46.864 46.1532 45.9774 46.1532 44.7507C46.1532 43.2827 45.1852 42.7614 43.2225 41.9067L42.1465 41.448C39.0412 40.1307 36.9758 38.48 36.9758 34.9934C36.9758 31.78 39.4358 29.3347 43.2798 29.3347C46.0172 29.3347 47.9838 30.2827 49.4025 32.7654L46.0505 34.908C45.3132 33.5907 44.5158 33.072 43.2798 33.072C42.0185 33.072 41.2198 33.868 41.2198 34.908C41.2198 36.1934 42.0198 36.7134 43.8665 37.5094L44.9425 37.968C48.6025 39.5267 50.6665 41.1187 50.6665 44.6974C50.6665 48.5534 47.6212 50.6667 43.5332 50.6667C39.5345 50.6667 37.2638 48.66 35.9998 46.176L39.3838 43.9294ZM23.9358 44.0387C24.6105 45.2467 25.6358 46.176 27.1105 46.176C28.5212 46.176 29.3332 45.6187 29.3332 43.452V29.3334H33.7772V44.1347C33.7772 48.624 31.1732 50.6667 27.3705 50.6667C23.9345 50.6667 21.4545 48.3387 20.4438 46.176L23.9358 44.0387Z" fill="#000001"/>
</svg>
