<svg width="64" height="64" viewBox="0 0 64 64" fill="none" xmlns="http://www.w3.org/2000/svg">
<path d="M32.0002 45.3333C14.8002 45.3333 1.3335 39.4666 1.3335 32C1.3335 24.5333 14.8002 18.6666 32.0002 18.6666C49.2002 18.6666 62.6668 24.5333 62.6668 32C62.6668 39.4666 49.2002 45.3333 32.0002 45.3333ZM32.0002 21.3333C15.2002 21.3333 4.00016 26.8 4.00016 32C4.00016 37.2 15.2002 42.6666 32.0002 42.6666C48.8002 42.6666 60.0002 37.2 60.0002 32C60.0002 26.8 48.8002 21.3333 32.0002 21.3333Z" fill="#80DEEA"/>
<path d="M20.1331 59.4667C18.7998 59.4667 17.7331 59.2 16.6664 58.5333C10.1331 54.8 11.8664 40.2667 20.3998 25.3333C24.3998 18.4 29.3331 12.5333 34.1331 8.79999C39.3331 4.79999 43.9998 3.59999 47.1998 5.46666C50.5331 7.33332 51.7331 12 50.9331 18.5333C50.1331 24.6667 47.4664 31.8667 43.4664 38.8C39.4664 45.7333 34.5331 51.6 29.7331 55.3333C26.2664 58 22.9331 59.4667 20.1331 59.4667ZM43.8664 7.19999C41.7331 7.19999 38.9331 8.39999 35.8664 10.8C31.3331 14.4 26.6664 20 22.7998 26.6667C14.3998 41.2 13.5998 53.7333 17.9998 56.2667C20.2664 57.6 23.9998 56.4 28.1331 53.2C32.6664 49.6 37.3331 44 41.1998 37.3333C45.0664 30.6667 47.5998 23.8667 48.3998 18.1333C49.0664 12.8 48.2664 9.06666 45.9998 7.73332C45.3331 7.46666 44.6664 7.19999 43.8664 7.19999Z" fill="#80DEEA"/>
<path d="M43.9999 59.4666C37.3332 59.4666 27.7332 51.3333 20.5332 38.6666C11.8666 23.7333 10.1332 9.19997 16.6666 5.46664C23.1999 1.73331 34.9332 10.4 43.5999 25.3333C47.5999 32.2666 50.2666 39.4666 51.0666 45.6C51.9999 52.1333 50.6666 56.6666 47.3332 58.6666C46.2666 59.2 45.1999 59.4666 43.9999 59.4666ZM17.9999 7.73331C13.5999 10.2666 14.3999 22.8 22.7999 37.3333C31.1999 51.8666 41.5999 58.8 45.9999 56.2666C48.2666 54.9333 49.0666 51.2 48.3999 45.8666C47.5999 40.1333 45.0666 33.3333 41.1999 26.6666C32.7999 12.1333 22.3999 5.19997 17.9999 7.73331Z" fill="#80DEEA"/>
<path d="M31.9998 37.3333C34.9454 37.3333 37.3332 34.9455 37.3332 32C37.3332 29.0544 34.9454 26.6666 31.9998 26.6666C29.0543 26.6666 26.6665 29.0544 26.6665 32C26.6665 34.9455 29.0543 37.3333 31.9998 37.3333Z" fill="#80DEEA"/>
</svg>
