<svg width="96" height="96" viewBox="0 0 96 96" fill="none" xmlns="http://www.w3.org/2000/svg">
<path d="M82 10H14L20 78L48 86L76 78L82 10Z" fill="#0277BD"/>
<path d="M48 16V79.8L70.4 73.4L75.4 16H48Z" fill="#039BE5"/>
<path d="M66.2 26H48V34H57.8L57.2 42H48V50H56.8L56.2 59L48 61.8V70.2L63.8 65L65.2 42L66.2 26Z" fill="white"/>
<path d="M48.0001 26V34H30.2001L29.6001 26H48.0001ZM38.8001 42L39.2001 50H48.0001V42H38.8001ZM39.6001 54H31.6001L32.2001 65L48.0001 70.2V61.8L39.8001 59L39.6001 54Z" fill="#EEEEEE"/>
</svg>
