<svg width="74" height="74" viewBox="0 0 74 74" fill="none" xmlns="http://www.w3.org/2000/svg">
<rect width="74" height="74" fill="#1E1E1E"/>
<g clip-path="url(#clip0_75_98)">
<path d="M36.5 37.5C36.5 35.4224 37.3165 33.43 38.7699 31.961C40.2233 30.4919 42.1946 29.6666 44.25 29.6666C46.3054 29.6666 48.2767 30.4919 49.7301 31.961C51.1835 33.43 52 35.4224 52 37.5C52 39.5775 51.1835 41.5699 49.7301 43.039C48.2767 44.508 46.3054 45.3333 44.25 45.3333C42.1946 45.3333 40.2233 44.508 38.7699 43.039C37.3165 41.5699 36.5 39.5775 36.5 37.5Z" fill="#1ABCFE"/>
<path d="M21 53.1667C21 51.0892 21.8165 49.0967 23.2699 47.6277C24.7233 46.1587 26.6946 45.3334 28.75 45.3334H36.5V53.1667C36.5 55.2442 35.6835 57.2367 34.2301 58.7057C32.7767 60.1747 30.8054 61 28.75 61C26.6946 61 24.7233 60.1747 23.2699 58.7057C21.8165 57.2367 21 55.2442 21 53.1667V53.1667Z" fill="#0ACF83"/>
<path d="M36.5 14V29.6667H44.25C46.3054 29.6667 48.2767 28.8414 49.7301 27.3723C51.1835 25.9033 52 23.9109 52 21.8333C52 19.7558 51.1835 17.7634 49.7301 16.2943C48.2767 14.8253 46.3054 14 44.25 14H36.5Z" fill="#FF7262"/>
<path d="M21 21.8333C21 23.9109 21.8165 25.9033 23.2699 27.3723C24.7233 28.8414 26.6946 29.6667 28.75 29.6667H36.5V14H28.75C26.6946 14 24.7233 14.8253 23.2699 16.2943C21.8165 17.7634 21 19.7558 21 21.8333V21.8333Z" fill="#F24E1E"/>
<path d="M21 37.5C21 39.5775 21.8165 41.5699 23.2699 43.039C24.7233 44.508 26.6946 45.3333 28.75 45.3333H36.5V29.6666H28.75C26.6946 29.6666 24.7233 30.4919 23.2699 31.961C21.8165 33.43 21 35.4224 21 37.5V37.5Z" fill="#A259FF"/>
</g>
<defs>
<clipPath id="clip0_75_98">
<rect width="31" height="47" fill="white" transform="translate(21 14)"/>
</clipPath>
</defs>
</svg>
