<svg width="647" height="421" viewBox="0 0 647 421" fill="none" xmlns="http://www.w3.org/2000/svg" style="" class="">
<g id="Group 9">
<path id="Vector" d="M260.007 144.953V145.453H260.507H606.09H606.59V144.953V75.0686V74.5686H606.09H260.507H260.007V75.0686V144.953ZM607.126 145.989H259.471V74.0327H607.126V145.989Z" stroke="#2B6384" class="BzdcIwPZ_0"></path>
<path id="Vector_2" d="M1.40946 419.309V419.809H1.90946H645.464H645.964V419.309V1.53593V1.03593H645.464H1.90946H1.40946V1.53593V419.309ZM646.5 420.345H0.873535V0.5H646.5V420.345Z" stroke="#2B6384" class="BzdcIwPZ_1"></path>
<path id="Vector_3" d="M203.406 24.5642H203.942V420.173H203.406V24.5642Z" stroke="#2B6384" class="BzdcIwPZ_2"></path>
<path id="Vector_4" d="M282.661 225.974V226.474H283.161H394.516H395.016V225.974V212.15V211.65H394.516H283.161H282.661V212.15V225.974ZM395.552 227.01H282.125V211.114H395.552V227.01Z" stroke="#2B6384" class="BzdcIwPZ_3"></path>
<path id="Vector_5" d="M282.661 345.008V345.508H283.161H394.516H395.016V345.008V331.185V330.685H394.516H283.161H282.661V331.185V345.008ZM395.552 346.044H282.125V330.149H395.552V346.044Z" stroke="#2B6384" class="BzdcIwPZ_4"></path>
<path id="Vector_6" d="M283.045 285.491V285.991H283.545H572.3H572.8V285.491V271.668V271.168H572.3H283.545H283.045V271.668V285.491ZM573.336 286.527H282.509V270.632H573.336V286.527Z" stroke="#2B6384" class="BzdcIwPZ_5"></path>
<path id="Vector_7" d="M460.061 225.974V226.474H460.561H571.916H572.416V225.974V212.15V211.65H571.916H460.561H460.061V212.15V225.974ZM572.952 227.01H459.525V211.114H572.952V227.01Z" stroke="#2B6384" class="BzdcIwPZ_6"></path>
<path id="Vector_8" d="M104.273 148.303H104.272C92.0569 148.303 80.1162 151.925 69.9597 158.712C59.8033 165.498 51.8873 175.143 47.2128 186.429C42.5383 197.714 41.3153 210.132 43.6983 222.112C46.0813 234.092 51.9635 245.097 60.6008 253.734C69.2382 262.372 80.2428 268.254 92.2231 270.637C104.203 273.02 116.621 271.797 127.907 267.122C139.192 262.448 148.838 254.532 155.624 244.375C162.41 234.219 166.032 222.278 166.032 210.063V210.063C166.014 193.689 159.501 177.991 147.923 166.413C136.345 154.834 120.647 148.322 104.273 148.303ZM104.271 272.738C91.8757 272.738 79.7584 269.062 69.4517 262.175C59.1449 255.289 51.1118 245.5 46.368 234.048C41.6243 222.596 40.3831 209.994 42.8015 197.836C45.2198 185.678 51.189 174.511 59.9542 165.746C68.7194 156.98 79.887 151.011 92.0447 148.593C104.202 146.175 116.804 147.416 128.257 152.16C139.709 156.903 149.497 164.936 156.384 175.243C163.271 185.55 166.947 197.667 166.947 210.063C166.928 226.679 160.319 242.61 148.569 254.36C136.819 266.11 120.888 272.719 104.271 272.738Z" stroke="#2B6384" class="BzdcIwPZ_7"></path>
<path id="Vector_9" d="M1.64136 23.7961H645.732V24.3321H1.64136V23.7961Z" stroke="#2B6384" class="BzdcIwPZ_8"></path>
<path id="Vector_10" d="M22.3767 12.2875V12.287C22.3751 10.9329 21.8365 9.63479 20.8791 8.67734C19.9216 7.71989 18.6234 7.18131 17.2694 7.17974L17.2688 7.67974V7.17974C16.2586 7.17974 15.271 7.4793 14.431 8.04055C13.5911 8.6018 12.9364 9.39954 12.5498 10.3329C12.1632 11.2662 12.062 12.2932 12.2591 13.284C12.4562 14.2748 12.9427 15.185 13.657 15.8993C14.3714 16.6136 15.2815 17.1001 16.2723 17.2972C17.2631 17.4943 18.2902 17.3931 19.2235 17.0065C20.1568 16.6199 20.9546 15.9652 21.5158 15.1253C22.0771 14.2853 22.3767 13.2978 22.3767 12.2875ZM17.2682 17.9313C16.1522 17.9311 15.0612 17.6002 14.1333 16.9801C13.2052 16.36 12.4818 15.4785 12.0546 14.4473C11.6275 13.416 11.5157 12.2813 11.7334 11.1865C11.9512 10.0917 12.4887 9.08611 13.278 8.29681C14.0674 7.50752 15.073 6.97001 16.1678 6.75224C17.2625 6.53448 18.3973 6.64625 19.4286 7.07341C20.4599 7.50057 21.3413 8.22394 21.9615 9.15205C22.5816 10.0802 22.9126 11.1713 22.9126 12.2875C22.9107 13.7838 22.3155 15.2182 21.2575 16.2762C20.1994 17.3343 18.7647 17.9295 17.2682 17.9313Z" stroke="#2B6384" class="BzdcIwPZ_9"></path>
<path id="Vector_11" d="M40.8079 12.2875L40.8079 12.287C40.8063 10.9329 40.2677 9.63479 39.3103 8.67734C38.3528 7.71989 37.0547 7.18131 35.7007 7.17974L35.7001 7.67953V7.17974C34.6899 7.17974 33.7023 7.4793 32.8624 8.04055C32.0224 8.60181 31.3677 9.39954 30.9811 10.3329C30.5945 11.2662 30.4934 12.2932 30.6904 13.284C30.8875 14.2748 31.374 15.185 32.0884 15.8993C32.8027 16.6136 33.7128 17.1001 34.7036 17.2972C35.6944 17.4943 36.7214 17.3931 37.6548 17.0065C38.5881 16.6199 39.3858 15.9652 39.9471 15.1253C40.5083 14.2853 40.8079 13.2978 40.8079 12.2875ZM35.6995 17.9313C34.5835 17.9311 33.4926 17.6002 32.5646 16.9801C31.6365 16.36 30.9132 15.4785 30.486 14.4473C30.0588 13.416 29.9471 12.2813 30.1648 11.1865C30.3826 10.0917 30.9201 9.0861 31.7094 8.29681C32.4987 7.50752 33.5043 6.97001 34.5991 6.75224C35.6939 6.53448 36.8286 6.64624 37.8598 7.07341C38.8911 7.50057 39.7725 8.22394 40.3927 9.15205C41.0127 10.08 41.3437 11.1709 41.3438 12.287C41.3421 13.7834 40.7469 15.218 39.6887 16.2762C38.6306 17.3343 37.1959 17.9295 35.6995 17.9313Z" stroke="#2B6384" class="BzdcIwPZ_10"></path>
<path id="Vector_12" d="M59.239 12.2875V12.2869C59.2374 10.9329 58.6988 9.63479 57.7414 8.67734C56.7839 7.71989 55.4858 7.18131 54.1317 7.17973L54.1311 7.67973L54.1311 7.17973C53.1209 7.17973 52.1333 7.4793 51.2934 8.04055C50.4534 8.60179 49.7987 9.39952 49.4121 10.3329C49.0255 11.2662 48.9243 12.2932 49.1214 13.284C49.3185 14.2748 49.805 15.185 50.5193 15.8993C51.2337 16.6136 52.1438 17.1001 53.1346 17.2972C54.1255 17.4943 55.1525 17.3931 56.0858 17.0065C57.0191 16.6199 57.8169 15.9652 58.3782 15.1253C58.9394 14.2853 59.239 13.2978 59.239 12.2875ZM58.8238 9.15203C59.444 10.0801 59.7749 11.1713 59.7749 12.2875C59.773 13.7837 59.1779 15.2182 58.1198 16.2762C57.0617 17.3343 55.627 17.9295 54.1306 17.9313C53.0145 17.9311 51.9236 17.6002 50.9956 16.9801C50.0675 16.36 49.3441 15.4786 48.9169 14.4473C48.4898 13.416 48.378 12.2813 48.5957 11.1865C48.8135 10.0917 49.351 9.08611 50.1403 8.29682C50.9296 7.50753 51.9353 6.97001 53.0301 6.75225C54.1249 6.53448 55.2597 6.64624 56.2909 7.0734C57.3222 7.50056 58.2037 8.22393 58.8238 9.15203Z" stroke="#2B6384" class="BzdcIwPZ_11"></path>
</g>
<style data-made-with="vivus-instant">.BzdcIwPZ_0{stroke-dasharray:1675 1677;stroke-dashoffset:1676;}.start .BzdcIwPZ_0{animation:BzdcIwPZ_draw 1666ms linear 0ms forwards;}.BzdcIwPZ_1{stroke-dasharray:4258 4260;stroke-dashoffset:4259;}.start .BzdcIwPZ_1{animation:BzdcIwPZ_draw 1666ms linear 75ms forwards;}.BzdcIwPZ_2{stroke-dasharray:793 795;stroke-dashoffset:794;}.start .BzdcIwPZ_2{animation:BzdcIwPZ_draw 1666ms linear 151ms forwards;}.BzdcIwPZ_3{stroke-dasharray:514 516;stroke-dashoffset:515;}.start .BzdcIwPZ_3{animation:BzdcIwPZ_draw 1666ms linear 227ms forwards;}.BzdcIwPZ_4{stroke-dasharray:513 515;stroke-dashoffset:514;}.start .BzdcIwPZ_4{animation:BzdcIwPZ_draw 1666ms linear 303ms forwards;}.BzdcIwPZ_5{stroke-dasharray:1223 1225;stroke-dashoffset:1224;}.start .BzdcIwPZ_5{animation:BzdcIwPZ_draw 1666ms linear 378ms forwards;}.BzdcIwPZ_6{stroke-dasharray:514 516;stroke-dashoffset:515;}.start .BzdcIwPZ_6{animation:BzdcIwPZ_draw 1666ms linear 454ms forwards;}.BzdcIwPZ_7{stroke-dasharray:782 784;stroke-dashoffset:783;}.start .BzdcIwPZ_7{animation:BzdcIwPZ_draw 1666ms linear 530ms forwards;}.BzdcIwPZ_8{stroke-dasharray:1290 1292;stroke-dashoffset:1291;}.start .BzdcIwPZ_8{animation:BzdcIwPZ_draw 1666ms linear 606ms forwards;}.BzdcIwPZ_9{stroke-dasharray:69 71;stroke-dashoffset:70;}.start .BzdcIwPZ_9{animation:BzdcIwPZ_draw 1666ms linear 681ms forwards;}.BzdcIwPZ_10{stroke-dasharray:69 71;stroke-dashoffset:70;}.start .BzdcIwPZ_10{animation:BzdcIwPZ_draw 1666ms linear 757ms forwards;}.BzdcIwPZ_11{stroke-dasharray:69 71;stroke-dashoffset:70;}.start .BzdcIwPZ_11{animation:BzdcIwPZ_draw 1666ms linear 833ms forwards;}@keyframes BzdcIwPZ_draw{100%{stroke-dashoffset:0;}}@keyframes BzdcIwPZ_fade{0%{stroke-opacity:1;}94.02985074626866%{stroke-opacity:1;}100%{stroke-opacity:0;}}</style></svg>
