<svg width="583" height="457" viewBox="0 0 583 457" fill="none" xmlns="http://www.w3.org/2000/svg">
<g id="Group 5">
<path id="Vector" d="M291.094 329.368L190.191 455.496H391.996L291.094 329.368Z" stroke="#53C6EB" stroke-width="2" stroke-linecap="round" stroke-linejoin="round"/>
<path id="Vector_2" d="M581.188 139.74V328.932H1V1H442.447" stroke="#53C6EB" stroke-width="2" stroke-linecap="round" stroke-linejoin="round"/>
<path id="Vector_3" d="M581.188 329.368H1V392.432H581.188V329.368Z" stroke="#53C6EB" stroke-width="2" stroke-linecap="round" stroke-linejoin="round"/>
<path id="Vector_4" d="M127.128 455.496H455.06" stroke="#53C6EB" stroke-width="2" stroke-linecap="round" stroke-linejoin="round"/>
<path id="Middle" d="M291.094 51.8872V278.917" stroke="#53C6EB" stroke-width="2" stroke-linecap="round" stroke-linejoin="round"/>
<path id="Triangle2" d="M385.69 133.87L354.158 165.402L385.69 196.934" stroke="#53C6EB" stroke-width="2" stroke-linecap="round" stroke-linejoin="round"/>
<path id="Triangle1" d="M486.592 133.87L518.124 165.402L486.592 196.934" stroke="#53C6EB" stroke-width="2" stroke-linecap="round" stroke-linejoin="round"/>
<path id="Middle triangle line" d="M448.753 133.87L423.528 196.934" stroke="#53C6EB" stroke-width="2" stroke-linecap="round" stroke-linejoin="round"/>
<path id="Line1" d="M51.4512 64.5H89.2895" stroke="#53C6EB" stroke-width="2" stroke-linecap="round" stroke-linejoin="round"/>
<path id="Line2" d="M51.4512 102.338H164.966" stroke="#53C6EB" stroke-width="2" stroke-linecap="round" stroke-linejoin="round"/>
<path id="Line3" d="M51.4512 165.402H127.128" stroke="#53C6EB" stroke-width="2" stroke-linecap="round" stroke-linejoin="round"/>
<path id="Line4" d="M51.4512 203.241H89.2895" stroke="#53C6EB" stroke-width="2" stroke-linecap="round" stroke-linejoin="round"/>
<path id="Line5" d="M127.128 203.241H164.966" stroke="#53C6EB" stroke-width="2" stroke-linecap="round" stroke-linejoin="round"/>
<path id="Line6" d="M51.4512 266.304H89.2895" stroke="#53C6EB" stroke-width="2" stroke-linecap="round" stroke-linejoin="round"/>
<path id="Vector 1" d="M440.101 1H578.176C579.832 1 581.176 2.34315 581.176 4V140.566" stroke="#53C6EB" stroke-width="2"/>
</g>
</svg>
