<svg width="190" height="41" viewBox="0 0 190 41" fill="none" xmlns="http://www.w3.org/2000/svg">
<path d="M10.76 39.176C10.248 39.176 9.624 39.064 8.888 38.84C8.184 38.648 7.544 38.232 6.968 37.592C6.424 36.984 6.152 36.088 6.152 34.904C6.152 33.912 6.344 32.712 6.728 31.304C7.112 29.896 7.592 28.328 8.168 26.6C8.744 24.872 9.32 23.016 9.896 21.032C10.472 19.016 10.952 16.936 11.336 14.792C11.72 12.616 11.912 10.408 11.912 8.168C11.912 7.048 11.832 6.056 11.672 5.192C11.512 4.328 11.224 3.656 10.808 3.176C10.392 2.696 9.784 2.456 8.984 2.456C8.152 2.456 7.448 2.696 6.872 3.176C6.296 3.656 5.816 4.28 5.432 5.048C5.08 5.816 4.808 6.616 4.616 7.448C4.456 8.28 4.376 9.064 4.376 9.8C4.376 10.344 4.424 10.872 4.52 11.384C4.648 11.896 4.84 12.408 5.096 12.92C3.528 12.92 2.392 12.552 1.688 11.816C0.984 11.08 0.632 10.168 0.632 9.08C0.632 8.12 0.872 7.128 1.352 6.104C1.832 5.08 2.488 4.152 3.32 3.32C4.184 2.456 5.176 1.768 6.296 1.256C7.448 0.711999 8.664 0.439999 9.944 0.439999C12.12 0.439999 13.768 1.24 14.888 2.84C16.008 4.408 16.568 6.568 16.568 9.32C16.568 11.08 16.36 12.92 15.944 14.84C15.56 16.76 15.08 18.696 14.504 20.648C13.928 22.568 13.336 24.44 12.728 26.264C12.152 28.088 11.656 29.784 11.24 31.352C10.856 32.888 10.664 34.232 10.664 35.384C10.664 35.896 10.728 36.296 10.856 36.584C11.016 36.872 11.336 37.016 11.816 37.016C12.744 37.016 13.784 36.584 14.936 35.72C16.12 34.856 17.336 33.688 18.584 32.216C19.832 30.712 21.048 29.016 22.232 27.128C23.416 25.24 24.488 23.272 25.448 21.224C26.408 19.176 27.16 17.144 27.704 15.128C28.28 13.112 28.568 11.256 28.568 9.56C28.568 7.864 28.264 6.568 27.656 5.672C27.048 4.776 26.28 4.168 25.352 3.848C25.8 2.888 26.344 2.2 26.984 1.784C27.656 1.336 28.248 1.112 28.76 1.112C29.624 1.112 30.44 1.656 31.208 2.744C31.976 3.832 32.36 5.368 32.36 7.352C32.36 9.08 32.024 11.064 31.352 13.304C30.712 15.512 29.816 17.816 28.664 20.216C27.512 22.584 26.2 24.904 24.728 27.176C23.288 29.416 21.752 31.448 20.12 33.272C18.52 35.064 16.92 36.488 15.32 37.544C13.72 38.632 12.2 39.176 10.76 39.176ZM33.9181 36.44C32.5101 36.44 31.4541 36.024 30.7501 35.192C30.0461 34.36 29.6941 33.352 29.6941 32.168C29.6941 31.432 29.8221 30.504 30.0781 29.384C30.3341 28.264 30.6861 27.096 31.1341 25.88C31.6141 24.632 32.1581 23.464 32.7661 22.376C33.3741 21.288 34.0301 20.408 34.7341 19.736C35.4381 19.032 36.1421 18.68 36.8461 18.68C37.2301 18.68 37.5661 18.808 37.8541 19.064C38.1421 19.288 38.2861 19.624 38.2861 20.072C38.2861 20.488 38.0301 21.112 37.5181 21.944C37.0381 22.776 36.4621 23.736 35.7901 24.824C35.1501 25.912 34.5741 27.048 34.0621 28.232C33.5821 29.384 33.3421 30.488 33.3421 31.544C33.3421 32.568 33.5181 33.256 33.8701 33.608C34.2541 33.928 34.7981 34.088 35.5021 34.088C36.5901 34.088 37.7741 33.544 39.0541 32.456C40.3341 31.368 41.6621 29.464 43.0381 26.744L43.7581 27.512C42.6381 30.328 41.2141 32.52 39.4861 34.088C37.7581 35.656 35.9021 36.44 33.9181 36.44ZM39.5821 14.792C38.9741 14.792 38.4141 14.648 37.9021 14.36C37.4221 14.04 37.1821 13.56 37.1821 12.92C37.1821 12.152 37.5981 11.496 38.4301 10.952C39.2621 10.408 40.1261 10.136 41.0221 10.136C41.5981 10.136 42.0781 10.264 42.4621 10.52C42.8781 10.776 43.0861 11.24 43.0861 11.912C43.0861 12.584 42.7181 13.24 41.9821 13.88C41.2461 14.488 40.4461 14.792 39.5821 14.792ZM57.9729 35.96C56.7249 35.96 55.7649 35.64 55.0929 35C54.4529 34.392 54.1329 33.608 54.1329 32.648C54.1329 32.008 54.2449 31.336 54.4689 30.632C54.6929 29.896 54.9169 29.16 55.1409 28.424C55.3649 27.688 55.4769 26.984 55.4769 26.312C55.4769 25.608 55.3009 25.128 54.9489 24.872C54.6289 24.584 54.2449 24.44 53.7969 24.44C52.8369 24.44 51.8449 24.84 50.8209 25.64C49.8289 26.408 48.8529 27.384 47.8929 28.568C46.9649 29.752 46.0849 30.984 45.2529 32.264C44.4209 33.544 43.7009 34.696 43.0929 35.72C42.4849 35.72 41.9089 35.608 41.3649 35.384C40.8209 35.192 40.3569 34.84 39.9729 34.328C40.0049 34.168 40.1969 33.688 40.5489 32.888C40.8689 32.056 41.2369 31.08 41.6529 29.96C42.0689 28.808 42.4369 27.608 42.7569 26.36C43.0769 25.112 43.2369 23.976 43.2369 22.952C43.4609 22.696 43.7969 22.44 44.2449 22.184C44.7249 21.928 45.2209 21.8 45.7329 21.8C46.8529 21.8 47.4129 22.28 47.4129 23.24C47.4129 23.624 47.3329 24.2 47.1729 24.968C47.0449 25.704 46.8529 26.552 46.5969 27.512C47.4289 26.392 48.3409 25.336 49.3329 24.344C50.3249 23.352 51.3489 22.552 52.4049 21.944C53.4929 21.304 54.5809 20.984 55.6689 20.984C57.0449 20.984 58.0529 21.448 58.6929 22.376C59.3649 23.304 59.7009 24.328 59.7009 25.448C59.7009 26.408 59.5409 27.304 59.2209 28.136C58.9009 28.968 58.5809 29.752 58.2609 30.488C57.9729 31.224 57.8289 31.944 57.8289 32.648C57.8289 33.16 57.9409 33.528 58.1649 33.752C58.4209 33.944 58.6929 34.04 58.9809 34.04C59.7489 34.04 60.5489 33.672 61.3809 32.936C62.2129 32.2 62.9969 31.272 63.7329 30.152C64.5009 29 65.1729 27.848 65.7489 26.696L66.5649 27.368C65.8929 28.936 65.1249 30.376 64.2609 31.688C63.4289 32.968 62.4849 34.008 61.4289 34.808C60.4049 35.576 59.2529 35.96 57.9729 35.96ZM68.3244 36.44C66.9164 36.44 65.8604 36.024 65.1564 35.192C64.4524 34.36 64.1004 33.352 64.1004 32.168C64.1004 31.432 64.2284 30.504 64.4844 29.384C64.7404 28.264 65.0924 27.096 65.5404 25.88C66.0204 24.632 66.5644 23.464 67.1724 22.376C67.7804 21.288 68.4364 20.408 69.1404 19.736C69.8444 19.032 70.5484 18.68 71.2524 18.68C71.6364 18.68 71.9724 18.808 72.2604 19.064C72.5484 19.288 72.6924 19.624 72.6924 20.072C72.6924 20.488 72.4364 21.112 71.9244 21.944C71.4444 22.776 70.8684 23.736 70.1964 24.824C69.5564 25.912 68.9804 27.048 68.4684 28.232C67.9884 29.384 67.7484 30.488 67.7484 31.544C67.7484 32.568 67.9244 33.256 68.2764 33.608C68.6604 33.928 69.2044 34.088 69.9084 34.088C70.9964 34.088 72.1804 33.544 73.4604 32.456C74.7404 31.368 76.0684 29.464 77.4444 26.744L78.1644 27.512C77.0444 30.328 75.6204 32.52 73.8924 34.088C72.1644 35.656 70.3084 36.44 68.3244 36.44ZM73.9884 14.792C73.3804 14.792 72.8204 14.648 72.3084 14.36C71.8284 14.04 71.5884 13.56 71.5884 12.92C71.5884 12.152 72.0044 11.496 72.8364 10.952C73.6684 10.408 74.5324 10.136 75.4284 10.136C76.0044 10.136 76.4844 10.264 76.8684 10.52C77.2844 10.776 77.4924 11.24 77.4924 11.912C77.4924 12.584 77.1244 13.24 76.3884 13.88C75.6524 14.488 74.8524 14.792 73.9884 14.792ZM81.6271 37.688C79.9631 37.688 78.5871 37.16 77.4991 36.104C76.4431 35.08 75.9151 33.496 75.9151 31.352C75.9151 29.784 76.2191 28.248 76.8271 26.744C77.4351 25.24 78.2511 23.896 79.2751 22.712C80.2991 21.496 81.4351 20.536 82.6831 19.832C83.9631 19.128 85.2591 18.776 86.5711 18.776C87.9151 18.776 88.8751 19.112 89.4511 19.784C90.0591 20.456 90.3631 21.24 90.3631 22.136C90.3631 23.032 90.1391 23.912 89.6911 24.776C89.2751 25.608 88.6991 26.024 87.9631 26.024C87.3551 26.024 86.8591 25.72 86.4751 25.112C86.7951 24.888 87.1311 24.472 87.4831 23.864C87.8351 23.256 88.0111 22.472 88.0111 21.512C88.0111 21.256 87.9471 21.064 87.8191 20.936C87.6911 20.776 87.4511 20.696 87.0991 20.696C86.2991 20.696 85.4511 21.064 84.5551 21.8C83.6911 22.504 82.8751 23.432 82.1071 24.584C81.3711 25.704 80.7631 26.904 80.2831 28.184C79.8351 29.432 79.6111 30.584 79.6111 31.64C79.6111 32.536 79.8351 33.368 80.2831 34.136C80.7631 34.872 81.6751 35.24 83.0191 35.24C84.2351 35.24 85.4991 34.888 86.8111 34.184C88.1231 33.48 89.3551 32.504 90.5071 31.256C91.6591 29.976 92.5871 28.456 93.2911 26.696L94.2511 27.56C93.4831 29.512 92.4111 31.256 91.0351 32.792C89.6911 34.296 88.1871 35.48 86.5231 36.344C84.8911 37.24 83.2591 37.688 81.6271 37.688ZM96.0275 36.44C94.6195 36.44 93.5635 36.024 92.8595 35.192C92.1555 34.36 91.8035 33.352 91.8035 32.168C91.8035 31.432 91.9315 30.504 92.1875 29.384C92.4435 28.264 92.7955 27.096 93.2435 25.88C93.7235 24.632 94.2675 23.464 94.8755 22.376C95.4835 21.288 96.1395 20.408 96.8435 19.736C97.5475 19.032 98.2515 18.68 98.9555 18.68C99.3395 18.68 99.6755 18.808 99.9635 19.064C100.252 19.288 100.396 19.624 100.396 20.072C100.396 20.488 100.14 21.112 99.6275 21.944C99.1475 22.776 98.5715 23.736 97.8995 24.824C97.2595 25.912 96.6835 27.048 96.1715 28.232C95.6915 29.384 95.4515 30.488 95.4515 31.544C95.4515 32.568 95.6275 33.256 95.9795 33.608C96.3635 33.928 96.9075 34.088 97.6115 34.088C98.6995 34.088 99.8835 33.544 101.164 32.456C102.444 31.368 103.772 29.464 105.148 26.744L105.868 27.512C104.748 30.328 103.324 32.52 101.596 34.088C99.8675 35.656 98.0115 36.44 96.0275 36.44ZM101.692 14.792C101.084 14.792 100.524 14.648 100.012 14.36C99.5315 14.04 99.2915 13.56 99.2915 12.92C99.2915 12.152 99.7075 11.496 100.54 10.952C101.372 10.408 102.236 10.136 103.132 10.136C103.708 10.136 104.188 10.264 104.572 10.52C104.988 10.776 105.196 11.24 105.196 11.912C105.196 12.584 104.828 13.24 104.092 13.88C103.356 14.488 102.556 14.792 101.692 14.792ZM107.554 36.44C106.466 36.44 105.57 35.944 104.866 34.952C104.194 33.928 103.858 32.76 103.858 31.448C103.858 30.552 104.002 29.496 104.29 28.28C104.578 27.064 104.946 25.88 105.394 24.728C105.874 23.576 106.354 22.616 106.834 21.848C107.346 21.08 107.81 20.696 108.226 20.696C108.45 20.696 108.786 20.824 109.234 21.08C109.714 21.304 110.13 21.592 110.482 21.944C110.13 22.456 109.698 23.24 109.186 24.296C108.706 25.352 108.274 26.488 107.89 27.704C107.506 28.92 107.314 30.024 107.314 31.016C107.314 31.144 107.33 31.448 107.362 31.928C107.426 32.408 107.554 32.856 107.746 33.272C107.938 33.688 108.274 33.896 108.754 33.896C109.298 33.896 109.874 33.608 110.482 33.032C111.122 32.424 111.762 31.656 112.402 30.728C113.074 29.768 113.714 28.744 114.322 27.656C114.962 26.568 115.522 25.512 116.002 24.488C116.514 23.464 116.93 22.6 117.25 21.896C117.538 21.928 117.906 22.008 118.354 22.136C118.834 22.264 119.25 22.44 119.602 22.664C119.954 22.856 120.13 23.144 120.13 23.528C120.13 23.624 119.97 24.024 119.65 24.728C119.362 25.4 119.01 26.216 118.594 27.176C118.21 28.136 117.858 29.128 117.538 30.152C117.25 31.144 117.106 32.024 117.106 32.792C117.106 33.24 117.186 33.64 117.346 33.992C117.538 34.312 117.89 34.472 118.402 34.472C119.074 34.472 119.874 34.168 120.802 33.56C121.73 32.952 122.69 32.072 123.682 30.92C124.674 29.768 125.554 28.392 126.322 26.792L127.042 27.368C126.338 29.096 125.426 30.648 124.306 32.024C123.186 33.4 121.986 34.472 120.706 35.24C119.426 36.04 118.178 36.44 116.962 36.44C116.034 36.44 115.33 36.216 114.85 35.768C114.402 35.352 114.098 34.808 113.938 34.136C113.778 33.432 113.682 32.728 113.65 32.024C113.65 31.864 113.65 31.704 113.65 31.544C113.65 31.352 113.65 31.192 113.65 31.064C113.106 31.928 112.514 32.776 111.874 33.608C111.234 34.408 110.546 35.08 109.81 35.624C109.106 36.168 108.354 36.44 107.554 36.44ZM130.71 37.448C129.11 37.448 127.814 37.112 126.822 36.44C125.862 35.8 125.174 34.984 124.758 33.992C124.342 32.968 124.134 31.928 124.134 30.872C124.134 29.944 124.262 29.224 124.518 28.712C124.774 28.2 125.094 27.832 125.478 27.608C125.862 27.352 126.214 27.16 126.534 27.032C126.886 26.904 127.142 26.76 127.302 26.6C128.102 25.768 128.918 24.808 129.75 23.72C130.614 22.6 131.35 21.368 131.958 20.024V19.544C131.958 18.264 132.166 17.368 132.582 16.856C133.03 16.312 133.542 16.04 134.118 16.04C134.502 16.04 134.774 16.136 134.934 16.328C135.126 16.52 135.238 16.744 135.27 17C135.27 17.192 135.222 17.416 135.126 17.672C135.062 17.928 135.03 18.28 135.03 18.728C135.03 19.688 135.254 20.792 135.702 22.04C136.182 23.256 136.646 24.552 137.094 25.928C137.574 27.304 137.814 28.712 137.814 30.152C137.814 30.536 137.798 30.888 137.766 31.208C137.734 31.528 137.686 31.832 137.622 32.12C138.614 31.864 139.59 31.32 140.55 30.488C141.51 29.624 142.422 28.36 143.286 26.696L143.862 27.128C143.254 28.952 142.374 30.424 141.222 31.544C140.07 32.632 138.726 33.304 137.19 33.56C136.678 34.872 135.83 35.848 134.646 36.488C133.494 37.128 132.182 37.448 130.71 37.448ZM130.374 35.336C131.014 35.336 131.606 35.176 132.15 34.856C132.694 34.536 133.126 34.072 133.446 33.464C132.134 33.176 130.95 32.664 129.894 31.928C128.838 31.192 128.022 30.44 127.446 29.672C126.998 29.768 126.774 30.2 126.774 30.968C126.774 32.024 127.078 33.016 127.686 33.944C128.294 34.872 129.19 35.336 130.374 35.336ZM133.83 32.024C133.894 31.8 133.926 31.544 133.926 31.256C133.958 30.936 133.974 30.696 133.974 30.536C133.942 29.096 133.75 27.672 133.398 26.264C133.046 24.856 132.694 23.416 132.342 21.944C131.766 22.936 131.094 24.008 130.326 25.16C129.558 26.312 128.838 27.24 128.166 27.944C128.678 28.808 129.43 29.624 130.422 30.392C131.414 31.16 132.55 31.704 133.83 32.024ZM178.631 40.808C177.863 40.808 176.983 40.392 175.991 39.56C174.999 38.728 173.959 37.64 172.871 36.296C171.815 34.952 170.759 33.48 169.703 31.88C168.679 30.248 167.703 28.616 166.775 26.984C165.847 25.352 165.063 23.88 164.423 22.568C163.559 25.512 162.727 28.424 161.927 31.304C161.159 34.152 160.423 36.792 159.719 39.224C158.791 39.224 157.911 38.968 157.079 38.456C156.279 37.944 155.879 37.272 155.879 36.44C155.879 36.088 155.959 35.672 156.119 35.192C156.279 34.712 156.423 34.248 156.551 33.8C157.479 31.016 158.311 28.536 159.047 26.36C159.783 24.152 160.471 22.136 161.111 20.312C161.783 18.456 162.455 16.632 163.127 14.84C163.831 13.016 164.599 11.112 165.431 9.128C166.263 7.144 167.223 4.904 168.311 2.408C167.063 2.664 165.959 3 164.999 3.416C164.071 3.832 163.303 4.2 162.695 4.52C162.119 4.84 161.719 5 161.495 5C161.335 5 161.095 4.904 160.775 4.712C160.455 4.488 160.167 4.232 159.911 3.944C159.687 3.624 159.575 3.352 159.575 3.128C160.471 2.776 161.511 2.392 162.695 1.976C163.911 1.56 165.239 1.208 166.679 0.919998C168.119 0.599998 169.607 0.439999 171.143 0.439999C172.583 0.439999 174.071 0.615998 175.607 0.967998C177.143 1.288 178.567 1.816 179.879 2.552C181.191 3.288 182.247 4.248 183.047 5.432C183.847 6.616 184.247 8.04 184.247 9.704C184.247 11.208 183.911 12.52 183.239 13.64C182.567 14.728 181.671 15.656 180.551 16.424C179.431 17.192 178.199 17.816 176.855 18.296C175.511 18.776 174.151 19.16 172.775 19.448C171.399 19.704 170.119 19.88 168.935 19.976C167.783 20.072 166.823 20.136 166.055 20.168C167.079 21.8 168.087 23.384 169.079 24.92C170.071 26.456 171.127 27.992 172.247 29.528C173.399 31.032 174.727 32.552 176.231 34.088C177.735 35.592 179.511 37.128 181.559 38.696C181.431 39.336 181.031 39.848 180.359 40.232C179.719 40.616 179.143 40.808 178.631 40.808ZM165.527 18.728C167.319 18.6 169.079 18.312 170.807 17.864C172.567 17.416 174.151 16.792 175.559 15.992C176.999 15.192 178.135 14.2 178.967 13.016C179.831 11.8 180.263 10.376 180.263 8.744C180.263 7.08 179.847 5.784 179.015 4.856C178.183 3.896 177.111 3.208 175.799 2.792C174.487 2.376 173.111 2.152 171.671 2.12C170.583 4.264 169.527 6.792 168.503 9.704C167.479 12.584 166.487 15.592 165.527 18.728ZM187.425 35.48C186.657 35.48 186.113 35.288 185.793 34.904C185.473 34.488 185.313 34.072 185.313 33.656C185.313 33.304 185.473 32.936 185.793 32.552C186.113 32.136 186.513 31.8 186.993 31.544C187.473 31.256 187.921 31.112 188.337 31.112C188.689 31.112 189.041 31.224 189.393 31.448C189.745 31.64 189.921 32.024 189.921 32.6C189.921 32.856 189.825 33.224 189.633 33.704C189.441 34.152 189.153 34.568 188.769 34.952C188.417 35.304 187.969 35.48 187.425 35.48Z" fill="white"/>
</svg>
